<?xml version="1.0" encoding="UTF-8"?>
<!DOCTYPE svg PUBLIC "-//W3C//DTD SVG 1.1//EN" "http://www.w3.org/Graphics/SVG/1.1/DTD/svg11.dtd">
<!-- Creator: CorelDRAW -->
<svg xmlns="http://www.w3.org/2000/svg" xml:space="preserve" width="170mm" height="48.929mm" version="1.1" style="shape-rendering:geometricPrecision; text-rendering:geometricPrecision; image-rendering:optimizeQuality; fill-rule:evenodd; clip-rule:evenodd"
viewBox="0 0 17000 4892.9"
 xmlns:xlink="http://www.w3.org/1999/xlink"
 xmlns:xodm="http://www.corel.com/coreldraw/odm/2003">
 <defs>
  <style type="text/css">
   <![CDATA[
    .fil1 {fill:#EEDA53}
    .fil0 {fill:#15477C;fill-rule:nonzero}
   ]]>
  </style>
 </defs>
 <g id="Camada_x0020_1">
  <metadata id="CorelCorpID_0Corel-Layer"/>
  <g id="_1560442868960">
   <path class="fil0" d="M-0.49 2843.51l0 -2843.08 516.53 0 1346.5 1893.92 0 -1893.92 595.98 0 0 2843.08 -516.52 0 -1346.5 -1893.91 0 1893.91 -595.99 0zm3914.5 44.15c-391.44,0 -701.21,-94.92 -929.3,-284.75 -228.09,-189.83 -342.14,-465.75 -342.14,-827.76l0 -1774.72 595.99 0 0 1730.57c0,217.67 58.92,380.47 176.59,487.83 117.65,107.36 284.01,161.14 498.86,161.14 214.85,0 380.48,-53.78 496.66,-161.14 116.19,-107.36 174.38,-270.03 174.38,-487.83l0 -1730.57 595.99 0 0 1774.72c0,361.88 -113.38,638 -339.94,827.76 -226.54,189.77 -535.65,284.75 -927.09,284.75zm1460.51 -44.15l0 -2843.08 1333.25 0c223.69,0 406.99,42.76 549.64,128.03 142.65,85.25 249.52,201.69 320.06,348.76 70.55,147.06 105.96,314.92 105.96,503.28 0,191.3 -40.56,360.63 -121.41,507.69 -80.84,147.07 -195.72,261.21 -344.34,342.14 -148.63,80.93 -324.67,121.41 -527.56,121.41l-719.61 0 0 891.77 -595.99 0zm595.99 -1364.15l596 0c170.69,0 299.46,-44.88 386.28,-134.65 86.82,-89.76 130.24,-211.17 130.24,-364.21 0,-164.82 -41.29,-290.73 -123.62,-377.46 -82.31,-86.73 -206.2,-130.24 -370.83,-130.24l-618.07 0 0 1006.56zm1891.12 1364.15l0 -2843.08 2039.61 0 0 463.55 -1443.62 0 0 728.42 1280.27 0 0 459.13 -1280.27 0 0 732.85 1443.62 0 0 459.13 -2039.61 0zm2218.9 0l0 -2843.08 1191.98 0c426.75,0 748.31,109.63 964.62,328.89 216.32,219.26 324.49,587.9 324.49,1105.9 0,488.56 -106.84,845.54 -320.08,1070.57 -213.24,225 -536.66,337.72 -969.03,337.72l-1191.98 0zm595.99 -459.13l512.11 0c167.76,0 309.17,-25.89 423.82,-77.26 114.64,-51.37 201,-145.83 258.26,-282.54 57.25,-136.72 86.08,-333.31 86.08,-589.36 0,-256.06 -26.48,-451.79 -79.46,-587.16 -52.98,-135.38 -135.53,-228.24 -247.22,-278.13 -111.71,-49.89 -259.27,-75.05 -441.48,-75.05l-512.11 0 0 1889.5zm2064.39 459.13l0 -2843.08 2039.62 0 0 463.55 -1443.63 0 0 728.42 1280.28 0 0 459.13 -1280.28 0 0 732.85 1443.63 0 0 459.13 -2039.62 0zm2218.91 0l0 -2843.08 2039.61 0 0 463.55 -1443.62 0 0 728.42 1280.27 0 0 459.13 -1280.27 0 0 732.85 1443.62 0 0 459.13 -2039.61 0z"/>
   <path class="fil0" d="M-0.21 4882.23l0 -713.54 90.85 0 0 642.63 380.04 0 0 70.91 -470.89 0zm744.55 11.08c-33.24,0 -63.89,-5.91 -91.96,-17.73 -28.06,-11.82 -50.59,-29.36 -67.58,-52.63 -16.99,-23.26 -25.48,-52.63 -25.48,-88.08 0,-48.01 15.88,-87.35 47.64,-118 31.75,-30.66 83.46,-45.98 155.11,-45.98l182.82 0 0 -32.13c0,-28.81 -3.88,-51.71 -11.64,-68.7 -7.75,-16.99 -22.34,-29.18 -43.76,-36.56 -21.42,-7.39 -52.82,-11.08 -94.18,-11.08 -31.76,0 -62.42,2.58 -91.96,7.75 -29.55,5.17 -57.25,12.19 -83.09,21.06l0 -75.35c23.62,-8.86 51.51,-16.06 83.64,-21.6 32.13,-5.54 66.66,-8.31 103.6,-8.31 74.6,0 130.55,15.14 167.86,45.42 37.3,30.29 55.95,79.41 55.95,147.37l0 343.47 -76.45 0 -6.65 -59.83c-22.9,23.64 -50.6,41.36 -83.1,53.18 -32.5,11.82 -72.76,17.73 -120.77,17.73zm23.27 -74.23c38.41,0 72.39,-6.84 101.93,-20.5 29.55,-13.67 54.66,-32.32 75.35,-55.96l0 -101.93 -180.6 0c-41.37,0 -70.92,7.76 -88.64,23.27 -17.73,15.51 -26.59,39.15 -26.59,70.91 0,31.76 10.71,53.74 32.13,65.92 21.42,12.19 50.23,18.29 86.42,18.29zm680.3 74.23c-39.15,0 -73.31,-5.36 -102.49,-16.07 -29.17,-10.71 -55.95,-27.51 -80.32,-50.41l-6.65 55.4 -77.56 0 0 -746.78 90.85 0 0 260.38c48.02,-33.24 106.37,-49.86 175.06,-49.86 74.61,0 132.96,21.23 175.06,63.71 42.11,42.47 63.16,110.98 63.16,205.53 0,95.28 -21.05,165.46 -63.16,210.51 -42.1,45.06 -100.08,67.59 -173.95,67.59zm-23.27 -73.13c61.31,0 104.89,-16.99 130.75,-50.96 25.85,-33.98 38.78,-85.32 38.78,-154.01 0,-71.65 -13.85,-122.25 -41.55,-151.8 -27.7,-29.54 -71.1,-44.32 -130.19,-44.32 -31.76,0 -60.2,4.62 -85.32,13.85 -25.11,9.24 -46.9,21.98 -65.37,38.23l0 285.86c19.95,21.42 42.84,37.3 68.7,47.64 25.85,10.34 53.92,15.51 84.2,15.51zm633.76 73.13c-91.59,0 -158.26,-23.45 -199.99,-70.36 -41.73,-46.9 -62.59,-114.67 -62.59,-203.31 0,-87.9 21.04,-155.49 63.14,-202.76 42.11,-47.28 108.59,-70.91 199.44,-70.91 90.85,0 157.33,23.63 199.44,70.91 42.1,47.27 63.15,114.86 63.15,202.76 0,88.64 -20.68,156.41 -62.05,203.31 -41.36,46.91 -108.21,70.36 -200.54,70.36zm0 -77.56c62.79,0 107.11,-15.7 132.96,-47.09 25.85,-31.39 38.78,-81.07 38.78,-149.02 0,-67.96 -13.11,-117.63 -39.34,-149.02 -26.22,-31.4 -70.35,-47.09 -132.4,-47.09 -62.05,0 -106.18,15.69 -132.4,47.09 -26.23,31.39 -39.34,81.06 -39.34,149.02 0,67.95 12.93,117.63 38.78,149.02 25.86,31.39 70.17,47.09 132.96,47.09zm395.55 66.48l0 -525.18 81.99 0 6.65 66.48c25.85,-16.99 56.32,-32.5 91.41,-46.54 35.08,-14.03 69.61,-24.37 103.59,-31.02l0 70.91c-20.68,4.43 -43.21,10.52 -67.59,18.28 -24.37,7.76 -47.64,16.44 -69.8,26.04 -22.16,9.6 -40.62,19.57 -55.4,29.91l0 391.12 -90.85 0zm512.99 11.08c-33.24,0 -63.89,-5.91 -91.96,-17.73 -28.07,-11.82 -50.6,-29.36 -67.59,-52.63 -16.99,-23.26 -25.48,-52.63 -25.48,-88.08 0,-48.01 15.88,-87.35 47.64,-118 31.76,-30.66 83.47,-45.98 155.11,-45.98l182.82 0 0 -32.13c0,-28.81 -3.88,-51.71 -11.64,-68.7 -7.75,-16.99 -22.34,-29.18 -43.76,-36.56 -21.42,-7.39 -52.82,-11.08 -94.18,-11.08 -31.76,0 -62.41,2.58 -91.95,7.75 -29.55,5.17 -57.25,12.19 -83.1,21.06l0 -75.35c23.63,-8.86 51.52,-16.06 83.65,-21.6 32.13,-5.54 66.65,-8.31 103.59,-8.31 74.6,0 130.55,15.14 167.86,45.42 37.3,30.29 55.95,79.41 55.95,147.37l0 343.47 -76.45 0 -6.65 -59.83c-22.9,23.64 -50.6,41.36 -83.1,53.18 -32.5,11.82 -72.76,17.73 -120.76,17.73zm23.26 -74.23c38.41,0 72.39,-6.84 101.93,-20.5 29.55,-13.67 54.66,-32.32 75.35,-55.96l0 -101.93 -180.6 0c-41.36,0 -70.91,7.76 -88.63,23.27 -17.73,15.51 -26.59,39.15 -26.59,70.91 0,31.76 10.71,53.74 32.13,65.92 21.42,12.19 50.23,18.29 86.41,18.29zm604.96 74.23c-51.71,0 -90.67,-13.85 -116.89,-41.55 -26.22,-27.7 -39.34,-66.29 -39.34,-115.78l0 -306.91 -79.77 0 0 -72.02 79.77 0 0 -129.64 90.86 -27.7 0 157.34 145.14 0 -5.54 72.02 -139.6 0 0 302.47c0,31.77 7.2,54.48 21.6,68.15 14.41,13.66 39.34,20.49 74.79,20.49 19.21,0 40.26,-3.69 63.16,-11.08l0 68.7c-27.33,10.34 -58.73,15.51 -94.18,15.51zm402.2 -589.45l78.67 -186.14 81.98 0 -87.52 186.14 -73.13 0zm37.67 589.45c-91.59,0 -158.26,-23.45 -199.99,-70.36 -41.73,-46.9 -62.6,-114.67 -62.6,-203.31 0,-87.9 21.05,-155.49 63.15,-202.76 42.11,-47.28 108.59,-70.91 199.44,-70.91 90.85,0 157.32,23.63 199.43,70.91 42.1,47.27 63.15,114.86 63.15,202.76 0,88.64 -20.68,156.41 -62.05,203.31 -41.36,46.91 -108.2,70.36 -200.53,70.36zm0 -77.56c62.79,0 107.11,-15.7 132.95,-47.09 25.85,-31.39 38.78,-81.07 38.78,-149.02 0,-67.96 -13.11,-117.63 -39.34,-149.02 -26.21,-31.4 -70.34,-47.09 -132.39,-47.09 -62.05,0 -106.18,15.69 -132.4,47.09 -26.23,31.39 -39.34,81.06 -39.34,149.02 0,67.95 12.93,117.63 38.78,149.02 25.86,31.39 70.17,47.09 132.96,47.09zm395.54 66.48l0 -525.18 81.99 0 6.65 66.48c25.85,-16.99 56.32,-32.5 91.41,-46.54 35.08,-14.03 69.61,-24.37 103.59,-31.02l0 70.91c-20.68,4.43 -43.21,10.52 -67.59,18.28 -24.37,7.76 -47.64,16.44 -69.8,26.04 -22.16,9.6 -40.62,19.57 -55.4,29.91l0 391.12 -90.85 0zm422.14 -648.17l0 -83.1 100.82 0 0 83.1 -100.82 0zm8.86 648.17l0 -453.16 -80.88 0 8.86 -72.02 162.88 0 0 525.18 -90.86 0zm487.5 11.08c-91.58,0 -158.25,-23.45 -199.98,-70.36 -41.73,-46.9 -62.6,-114.67 -62.6,-203.31 0,-87.9 21.05,-155.49 63.15,-202.76 42.11,-47.28 108.59,-70.91 199.43,-70.91 90.85,0 157.33,23.63 199.44,70.91 42.1,47.27 63.15,114.86 63.15,202.76 0,88.64 -20.68,156.41 -62.05,203.31 -41.36,46.91 -108.21,70.36 -200.54,70.36zm0 -77.56c62.79,0 107.11,-15.7 132.96,-47.09 25.85,-31.39 38.78,-81.07 38.78,-149.02 0,-67.96 -13.11,-117.63 -39.34,-149.02 -26.22,-31.4 -70.35,-47.09 -132.4,-47.09 -62.04,0 -106.17,15.69 -132.39,47.09 -26.23,31.39 -39.34,81.06 -39.34,149.02 0,67.95 12.93,117.63 38.78,149.02 25.86,31.39 70.17,47.09 132.95,47.09zm865.34 77.56c-73.87,0 -131.85,-20.5 -173.96,-61.49 -42.1,-41 -63.15,-109.14 -63.15,-204.43 0,-94.54 21.97,-165.08 65.92,-211.62 43.95,-46.53 102.86,-69.8 176.73,-69.8 65.74,0 122.61,16.62 170.63,49.86l0 -260.38 90.85 0 0 746.78 -77.56 0 -6.65 -55.4c-24.37,22.9 -51.15,39.7 -80.33,50.41 -29.17,10.71 -63.33,16.07 -102.48,16.07zm23.26 -73.13c30.29,0 58.36,-5.17 84.21,-15.51 25.85,-10.34 48.75,-26.22 68.7,-47.64l0 -285.86c-18.47,-16.25 -40.26,-28.99 -65.38,-38.23 -25.11,-9.23 -53.55,-13.85 -85.31,-13.85 -58.35,0 -101.56,16.81 -129.63,50.42 -28.07,33.61 -42.11,86.24 -42.11,157.88 0,68.7 12.93,118 38.78,147.92 25.86,29.92 69.44,44.87 130.74,44.87zm645.95 73.13c-93.81,0 -163.98,-22.53 -210.52,-67.59 -46.53,-45.05 -69.8,-114.49 -69.8,-208.3 0,-84.2 20.13,-150.5 60.38,-198.88 40.26,-48.38 103.97,-72.57 191.13,-72.57 51.71,0 94.36,9.42 127.97,28.25 33.61,18.84 58.73,44.69 75.34,77.56 16.62,32.87 24.93,69.99 24.93,111.35l0 98.61 -388.9 0c2.96,39.89 11.64,71.28 26.04,94.18 14.4,22.9 36.19,39.33 65.37,49.31 29.18,9.97 67.77,14.95 115.79,14.95 53.92,0 103.41,-9.23 148.46,-27.7l0 70.91c-22.89,9.61 -48.56,16.99 -77,22.16 -28.44,5.17 -58.17,7.76 -89.19,7.76zm-189.47 -296.94l308.02 0 0 -43.21c0,-42.84 -11.26,-75.9 -33.79,-99.16 -22.53,-23.27 -59.65,-34.91 -111.35,-34.91 -62.79,0 -105.63,14.78 -128.53,44.32 -22.9,29.55 -34.35,73.87 -34.35,132.96zm776.7 285.86l0 -713.54 481.96 0 0 72.02 -391.11 0 0 249.3 351.22 0 0 70.91 -351.22 0 0 250.4 391.11 0 0 70.91 -481.96 0zm729.04 11.08c-35.45,0 -63.34,-9.42 -83.65,-28.25 -20.31,-18.84 -30.47,-50.79 -30.47,-95.84l0 -633.77 90.85 0 0 623.79c0,22.16 3.7,37.31 11.08,45.43 7.39,8.13 18.84,12.19 34.35,12.19 16.99,0 33.61,-2.22 49.86,-6.65l0 72.02c-11.82,4.43 -23.64,7.39 -35.46,8.86 -11.81,1.48 -24,2.22 -36.56,2.22zm351.23 -589.45l78.67 -186.14 81.99 0 -87.53 186.14 -73.13 0zm84.21 589.45c-93.81,0 -163.98,-22.53 -210.52,-67.59 -46.53,-45.05 -69.8,-114.49 -69.8,-208.3 0,-84.2 20.13,-150.5 60.38,-198.88 40.26,-48.38 103.97,-72.57 191.13,-72.57 51.71,0 94.36,9.42 127.97,28.25 33.61,18.84 58.73,44.69 75.34,77.56 16.62,32.87 24.93,69.99 24.93,111.35l0 98.61 -388.9 0c2.96,39.89 11.64,71.28 26.04,94.18 14.4,22.9 36.19,39.33 65.37,49.31 29.18,9.97 67.77,14.95 115.79,14.95 53.92,0 103.41,-9.23 148.46,-27.7l0 70.91c-22.89,9.61 -48.56,16.99 -77,22.16 -28.44,5.17 -58.17,7.76 -89.19,7.76zm-189.47 -296.94l308.02 0 0 -43.21c0,-42.84 -11.26,-75.9 -33.79,-99.16 -22.53,-23.27 -59.65,-34.91 -111.35,-34.91 -62.79,0 -105.63,14.78 -128.53,44.32 -22.9,29.55 -34.35,73.87 -34.35,132.96zm713.53 296.94c-51.71,0 -90.67,-13.85 -116.89,-41.55 -26.22,-27.7 -39.34,-66.29 -39.34,-115.78l0 -306.91 -79.77 0 0 -72.02 79.77 0 0 -129.64 90.86 -27.7 0 157.34 145.14 0 -5.54 72.02 -139.6 0 0 302.47c0,31.77 7.2,54.48 21.6,68.15 14.41,13.66 39.34,20.49 74.79,20.49 19.21,0 40.26,-3.69 63.16,-11.08l0 68.7c-27.33,10.34 -58.73,15.51 -94.18,15.51zm199.44 -11.08l0 -525.18 81.99 0 6.65 66.48c25.85,-16.99 56.32,-32.5 91.41,-46.54 35.08,-14.03 69.61,-24.37 103.59,-31.02l0 70.91c-20.68,4.43 -43.21,10.52 -67.59,18.28 -24.37,7.76 -47.64,16.44 -69.8,26.04 -22.16,9.6 -40.62,19.57 -55.4,29.91l0 391.12 -90.85 0zm422.14 -648.17l0 -83.1 100.82 0 0 83.1 -100.82 0zm8.86 648.17l0 -453.16 -80.88 0 8.86 -72.02 162.88 0 0 525.18 -90.86 0zm495.26 11.08c-91.6,0 -159.55,-23.82 -203.87,-71.46 -44.32,-47.65 -66.47,-115.05 -66.47,-202.21 0,-92.33 25.1,-161.03 75.33,-206.09 50.23,-45.05 117.82,-67.58 202.76,-67.58 34.72,0 63.53,2.4 86.42,7.2 22.9,4.8 45.06,12.37 66.48,22.71l0 72.02c-39.88,-19.2 -85.31,-28.81 -136.28,-28.81 -65,0 -115.23,15.33 -150.68,45.99 -35.46,30.65 -53.19,82.17 -53.19,154.56 0,69.43 15.52,120.21 46.54,152.35 31.02,32.13 82.36,48.19 154.01,48.19 50.96,0 97.87,-9.6 140.71,-28.8l0 73.12c-22.9,9.6 -47.46,16.81 -73.68,21.61 -26.22,4.8 -55.58,7.2 -88.08,7.2zm426.57 0c-33.24,0 -63.89,-5.91 -91.96,-17.73 -28.07,-11.82 -50.6,-29.36 -67.59,-52.63 -16.99,-23.26 -25.48,-52.63 -25.48,-88.08 0,-48.01 15.88,-87.35 47.64,-118 31.76,-30.66 83.47,-45.98 155.12,-45.98l182.82 0 0 -32.13c0,-28.81 -3.88,-51.71 -11.64,-68.7 -7.75,-16.99 -22.34,-29.18 -43.76,-36.56 -21.42,-7.39 -52.82,-11.08 -94.18,-11.08 -31.76,0 -62.42,2.58 -91.96,7.75 -29.55,5.17 -57.25,12.19 -83.1,21.06l0 -75.35c23.63,-8.86 51.52,-16.06 83.65,-21.6 32.13,-5.54 66.66,-8.31 103.6,-8.31 74.6,0 130.55,15.14 167.86,45.42 37.3,30.29 55.95,79.41 55.95,147.37l0 343.47 -76.45 0 -6.65 -59.83c-22.9,23.64 -50.6,41.36 -83.1,53.18 -32.5,11.82 -72.76,17.73 -120.77,17.73zm23.27 -74.23c38.41,0 72.39,-6.84 101.93,-20.5 29.55,-13.67 54.66,-32.32 75.35,-55.96l0 -101.93 -180.6 0c-41.37,0 -70.92,7.76 -88.64,23.27 -17.73,15.51 -26.59,39.15 -26.59,70.91 0,31.76 10.71,53.74 32.13,65.92 21.42,12.19 50.23,18.29 86.42,18.29zm926.27 74.23c-93.81,0 -163.98,-22.53 -210.52,-67.59 -46.53,-45.05 -69.8,-114.49 -69.8,-208.3 0,-84.2 20.13,-150.5 60.38,-198.88 40.26,-48.38 103.97,-72.57 191.13,-72.57 51.71,0 94.36,9.42 127.97,28.25 33.61,18.84 58.73,44.69 75.34,77.56 16.62,32.87 24.93,69.99 24.93,111.35l0 98.61 -388.9 0c2.96,39.89 11.64,71.28 26.04,94.18 14.4,22.9 36.19,39.33 65.37,49.31 29.18,9.97 67.77,14.95 115.79,14.95 53.92,0 103.41,-9.23 148.46,-27.7l0 70.91c-22.89,9.61 -48.56,16.99 -77,22.16 -28.44,5.17 -58.17,7.76 -89.19,7.76zm-189.47 -296.94l308.02 0 0 -43.21c0,-42.84 -11.26,-75.9 -33.79,-99.16 -22.53,-23.27 -59.65,-34.91 -111.35,-34.91 -62.79,0 -105.63,14.78 -128.53,44.32 -22.9,29.55 -34.35,73.87 -34.35,132.96zm776.7 285.86l0 -713.54 481.96 0 0 72.02 -391.11 0 0 249.3 351.22 0 0 70.91 -351.22 0 0 250.4 391.11 0 0 70.91 -481.96 0zm729.04 11.08c-35.45,0 -63.34,-9.42 -83.65,-28.25 -20.31,-18.84 -30.47,-50.79 -30.47,-95.84l0 -633.77 90.85 0 0 623.79c0,22.16 3.7,37.31 11.08,45.43 7.39,8.13 18.84,12.19 34.35,12.19 16.99,0 33.61,-2.22 49.86,-6.65l0 72.02c-11.82,4.43 -23.64,7.39 -35.46,8.86 -11.81,1.48 -24,2.22 -36.56,2.22zm435.44 0c-93.81,0 -163.98,-22.53 -210.52,-67.59 -46.53,-45.05 -69.8,-114.49 -69.8,-208.3 0,-84.2 20.13,-150.5 60.38,-198.88 40.26,-48.38 103.97,-72.57 191.13,-72.57 51.71,0 94.36,9.42 127.97,28.25 33.61,18.84 58.72,44.69 75.33,77.56 16.62,32.87 24.93,69.99 24.93,111.35l0 98.61 -388.89 0c2.96,39.89 11.64,71.28 26.04,94.18 14.4,22.9 36.19,39.33 65.37,49.31 29.18,9.97 67.77,14.95 115.79,14.95 53.92,0 103.41,-9.23 148.45,-27.7l0 70.91c-22.89,9.61 -48.55,16.99 -76.99,22.16 -28.44,5.17 -58.17,7.76 -89.19,7.76zm-189.47 -296.94l308.02 0 0 -43.21c0,-42.84 -11.26,-75.9 -33.79,-99.16 -22.53,-23.27 -59.65,-34.91 -111.35,-34.91 -62.79,0 -105.63,14.78 -128.53,44.32 -22.9,29.55 -34.35,73.87 -34.35,132.96zm713.53 296.94c-51.71,0 -90.67,-13.85 -116.89,-41.55 -26.22,-27.7 -39.34,-66.29 -39.34,-115.78l0 -306.91 -79.77 0 0 -72.02 79.77 0 0 -129.64 90.86 -27.7 0 157.34 145.14 0 -5.54 72.02 -139.6 0 0 302.47c0,31.77 7.2,54.48 21.6,68.15 14.41,13.66 39.34,20.49 74.79,20.49 19.21,0 40.26,-3.69 63.16,-11.08l0 68.7c-27.33,10.34 -58.73,15.51 -94.18,15.51zm199.44 -11.08l0 -525.18 81.99 0 6.65 66.48c25.85,-16.99 56.32,-32.5 91.41,-46.54 35.08,-14.03 69.61,-24.37 103.59,-31.02l0 70.91c-20.68,4.43 -43.21,10.52 -67.59,18.28 -24.37,7.76 -47.64,16.44 -69.8,26.04 -22.16,9.6 -40.62,19.57 -55.4,29.91l0 391.12 -90.85 0zm437.65 -578.37l127.42 -163.98 73.11 0 127.42 163.98 -78.67 0 -85.31 -113.01 -85.3 113.01 -78.67 0zm163.97 589.45c-91.58,0 -158.25,-23.45 -199.98,-70.36 -41.73,-46.9 -62.6,-114.67 -62.6,-203.31 0,-87.9 21.05,-155.49 63.15,-202.76 42.11,-47.28 108.59,-70.91 199.43,-70.91 90.85,0 157.33,23.63 199.44,70.91 42.1,47.27 63.15,114.86 63.15,202.76 0,88.64 -20.68,156.41 -62.05,203.31 -41.36,46.91 -108.21,70.36 -200.54,70.36zm0 -77.56c62.79,0 107.11,-15.7 132.96,-47.09 25.85,-31.39 38.78,-81.07 38.78,-149.02 0,-67.96 -13.11,-117.63 -39.34,-149.02 -26.22,-31.4 -70.35,-47.09 -132.4,-47.09 -62.04,0 -106.17,15.69 -132.39,47.09 -26.23,31.39 -39.34,81.06 -39.34,149.02 0,67.95 12.93,117.63 38.78,149.02 25.86,31.39 70.17,47.09 132.95,47.09zm395.55 66.48l0 -525.18 81.99 0 5.54 59.83c25.11,-20.68 54.47,-37.67 88.08,-50.97 33.61,-13.29 72.21,-19.94 115.79,-19.94 66.48,0 114.86,15.51 145.14,46.53 30.29,31.03 45.43,79.78 45.43,146.26l0 343.47 -90.85 0 0 -340.15c0,-45.8 -9.24,-77.74 -27.7,-95.84 -18.47,-18.1 -53.93,-27.15 -106.37,-27.15 -32.5,0 -63.15,5.91 -91.96,17.73 -28.81,11.82 -53.55,28.07 -74.24,48.75l0 396.66 -90.85 0zm648.17 -648.17l0 -83.1 100.82 0 0 83.1 -100.82 0zm8.86 648.17l0 -453.16 -80.88 0 8.86 -72.02 162.88 0 0 525.18 -90.86 0zm495.26 11.08c-91.6,0 -159.55,-23.82 -203.87,-71.46 -44.32,-47.65 -66.48,-115.05 -66.48,-202.21 0,-92.33 25.11,-161.03 75.34,-206.09 50.23,-45.05 117.82,-67.58 202.76,-67.58 34.72,0 63.53,2.4 86.42,7.2 22.9,4.8 45.06,12.37 66.48,22.71l0 72.02c-39.88,-19.2 -85.31,-28.81 -136.28,-28.81 -65,0 -115.23,15.33 -150.68,45.99 -35.46,30.65 -53.19,82.17 -53.19,154.56 0,69.43 15.52,120.21 46.54,152.35 31.02,32.13 82.36,48.19 154.01,48.19 50.96,0 97.87,-9.6 140.71,-28.8l0 73.12c-22.9,9.6 -47.46,16.81 -73.68,21.61 -26.22,4.8 -55.58,7.2 -88.08,7.2zm426.57 0c-33.24,0 -63.89,-5.91 -91.96,-17.73 -28.07,-11.82 -50.6,-29.36 -67.59,-52.63 -16.99,-23.26 -25.48,-52.63 -25.48,-88.08 0,-48.01 15.88,-87.35 47.64,-118 31.76,-30.66 83.47,-45.98 155.12,-45.98l182.82 0 0 -32.13c0,-28.81 -3.88,-51.71 -11.64,-68.7 -7.75,-16.99 -22.34,-29.18 -43.76,-36.56 -21.42,-7.39 -52.82,-11.08 -94.18,-11.08 -31.76,0 -62.42,2.58 -91.96,7.75 -29.55,5.17 -57.25,12.19 -83.1,21.06l0 -75.35c23.63,-8.86 51.52,-16.06 83.65,-21.6 32.13,-5.54 66.66,-8.31 103.6,-8.31 74.6,0 130.55,15.14 167.86,45.42 37.3,30.29 55.95,79.41 55.95,147.37l0 343.47 -76.45 0 -6.65 -59.83c-22.9,23.64 -50.6,41.36 -83.1,53.18 -32.5,11.82 -72.76,17.73 -120.77,17.73zm23.27 -74.23c38.41,0 72.39,-6.84 101.93,-20.5 29.55,-13.67 54.66,-32.32 75.35,-55.96l0 -101.93 -180.6 0c-41.37,0 -70.92,7.76 -88.64,23.27 -17.73,15.51 -26.59,39.15 -26.59,70.91 0,31.76 10.71,53.74 32.13,65.92 21.42,12.19 50.23,18.29 86.42,18.29z"/>
   <rect class="fil1" x="-0.49" y="3126.83" width="16999.92" height="755.55"/>
  </g>
 </g>
</svg>
